<svg width="34" height="34" viewBox="0 0 34 34" fill="none" xmlns="http://www.w3.org/2000/svg">
<path d="M10.9883 21.8091V3.3042L13.0188 4.33225L15.0493 3.3042L17.076 4.33225L19.13 3.3042L21.1409 4.33225L23.1581 3.3042L25.1842 4.33225L27.2325 3.3042L29.2636 4.33225L31.2935 3.3042V17.6969" stroke="#591567" stroke-width="2.05611" stroke-linejoin="round"/>
<path d="M31.2946 17.697V24.8933C31.2946 26.2566 30.7597 27.5641 29.8077 28.528C28.8557 29.492 27.5646 30.0336 26.2182 30.0336V30.0336C24.8719 30.0336 23.5807 29.492 22.6288 28.528C21.6768 27.5641 21.1419 26.2566 21.1419 24.8933V21.8092H3.88249C3.74883 21.808 3.61628 21.8337 3.49257 21.885C3.36885 21.9362 3.25646 22.0119 3.16195 22.1076C3.06744 22.2033 2.9927 22.3171 2.9421 22.4424C2.89149 22.5677 2.86604 22.7019 2.86723 22.8372C2.86723 26.9494 3.29491 30.0336 7.94354 30.0336H26.2182" stroke="#591567" stroke-width="2.05611" stroke-linejoin="round"/>
<path d="M19.1099 14.6129H27.232M15.0488 9.4726H27.232H15.0488Z" stroke="#591567" stroke-width="2.05611" stroke-linecap="round" stroke-linejoin="round"/>
</svg>
