<svg width="34" height="33" viewBox="0 0 34 33" fill="none" xmlns="http://www.w3.org/2000/svg">
<path d="M5.85938 20.5436L12.4586 13.9444M22.6112 18.0054L28.1951 12.4215L22.6112 18.0054ZM15.5044 13.9444L19.5654 18.0054L15.5044 13.9444Z" stroke="#591567" stroke-width="2.06074" stroke-linecap="round" stroke-linejoin="round"/>
<path d="M29.7182 12.4215C30.5593 12.4215 31.2411 11.7397 31.2411 10.8986C31.2411 10.0576 30.5593 9.37573 29.7182 9.37573C28.8771 9.37573 28.1953 10.0576 28.1953 10.8986C28.1953 11.7397 28.8771 12.4215 29.7182 12.4215Z" stroke="#591567" stroke-width="2.06074" stroke-linecap="round" stroke-linejoin="round"/>
<path d="M21.0893 21.0512C21.9304 21.0512 22.6122 20.3694 22.6122 19.5283C22.6122 18.6873 21.9304 18.0054 21.0893 18.0054C20.2482 18.0054 19.5664 18.6873 19.5664 19.5283C19.5664 20.3694 20.2482 21.0512 21.0893 21.0512Z" stroke="#591567" stroke-width="2.06074" stroke-linecap="round" stroke-linejoin="round"/>
<path d="M13.9819 13.9444C14.8229 13.9444 15.5048 13.2626 15.5048 12.4215C15.5048 11.5804 14.8229 10.8986 13.9819 10.8986C13.1408 10.8986 12.459 11.5804 12.459 12.4215C12.459 13.2626 13.1408 13.9444 13.9819 13.9444Z" stroke="#591567" stroke-width="2.06074" stroke-linecap="round" stroke-linejoin="round"/>
<path d="M4.33735 23.5894C5.17842 23.5894 5.86024 22.9076 5.86024 22.0665C5.86024 21.2254 5.17842 20.5436 4.33735 20.5436C3.49628 20.5436 2.81445 21.2254 2.81445 22.0665C2.81445 22.9076 3.49628 23.5894 4.33735 23.5894Z" stroke="#591567" stroke-width="2.06074" stroke-linecap="round" stroke-linejoin="round"/>
</svg>
