<svg width="33" height="34" viewBox="0 0 33 34" fill="none" xmlns="http://www.w3.org/2000/svg">
<g clip-path="url(#clip0_515_3353)">
<path d="M16.3663 6.85036C17.7681 6.85036 18.9044 5.71399 18.9044 4.31221C18.9044 2.91043 17.7681 1.77406 16.3663 1.77406C14.9645 1.77406 13.8281 2.91043 13.8281 4.31221C13.8281 5.71399 14.9645 6.85036 16.3663 6.85036Z" stroke="#0152A8" stroke-width="2.03052" stroke-linejoin="round"/>
<path d="M13.0808 18.1731C13.2648 17.0271 13.3473 15.9192 13.0491 15.1533C12.7953 14.4947 12.2432 14.126 11.577 13.8747L5.70559 11.9749C4.94414 11.7211 4.23282 11.2959 4.18269 10.4558C4.11924 9.3771 5.07105 8.6791 6.02286 8.93292C6.02286 8.93292 11.6068 10.9089 16.3658 10.9089C21.1249 10.9089 26.6454 8.9418 26.6454 8.9418C27.7875 8.62453 28.549 9.51289 28.549 10.4514C28.549 11.353 27.851 11.6703 27.0261 11.9705L21.4421 13.9953C20.9345 14.1856 20.1096 14.5664 19.7923 15.1489C19.4116 15.831 19.4751 17.0227 19.6591 18.1686L20.0335 20.0488L22.4073 30.4489C22.5849 31.2833 22.0075 32.0631 21.1763 32.2091C20.345 32.355 19.6654 31.7877 19.4192 30.9806L17.0359 23.6244C16.9213 23.2716 16.8197 22.9148 16.7313 22.5539L16.3658 21.064L16.0295 22.4378C15.9229 22.8756 15.8002 23.3088 15.6615 23.7373L13.32 30.9743C13.0662 31.7896 12.4 32.3544 11.5687 32.2091C10.7375 32.0638 10.1474 31.2198 10.3339 30.4489L12.7065 20.0532L13.0808 18.1731Z" stroke="#0152A8" stroke-width="2.03052" stroke-linejoin="round"/>
</g>
<defs>
<clipPath id="clip0_515_3353">
<rect width="32.4884" height="32.4884" fill="white" transform="translate(0.123047 0.758743)"/>
</clipPath>
</defs>
</svg>
