<svg width="34" height="33" viewBox="0 0 34 33" fill="none" xmlns="http://www.w3.org/2000/svg">
<path d="M3.88285 21.5366L30.2797 21.5366C30.8404 21.5366 31.2949 21.082 31.2949 20.5213L31.2949 6.30764C31.2949 5.74692 30.8404 5.29237 30.2797 5.29237L3.88285 5.29237C3.32214 5.29237 2.86759 5.74692 2.86759 6.30764L2.86759 20.5213C2.86759 21.082 3.32214 21.5366 3.88285 21.5366Z" stroke="#591567" stroke-width="2.08136" stroke-linejoin="round"/>
<path d="M6.92701 27.6281H27.2322M4.89648 24.5823H29.2628H4.89648Z" stroke="#591567" stroke-width="2.08136" stroke-linecap="round" stroke-linejoin="round"/>
<path d="M17.0802 18.4908C19.8838 18.4908 22.1565 16.218 22.1565 13.4145C22.1565 10.6109 19.8838 8.33815 17.0802 8.33815C14.2766 8.33815 12.0039 10.6109 12.0039 13.4145C12.0039 16.218 14.2766 18.4908 17.0802 18.4908Z" stroke="#591567" stroke-width="2.08136" stroke-linecap="round" stroke-linejoin="round"/>
<path d="M2.86719 16.4602C3.53382 16.4602 4.19392 16.5915 4.80981 16.8467C5.42569 17.1018 5.9853 17.4757 6.45668 17.9471C6.92806 18.4184 7.30198 18.978 7.55709 19.5939C7.81219 20.2098 7.9435 20.8699 7.9435 21.5366M31.2945 10.3687C29.9482 10.3687 28.657 9.83385 27.705 8.88186C26.753 7.92987 26.2182 6.63869 26.2182 5.29237L31.2945 10.3687ZM2.86719 10.3687C3.53382 10.3687 4.19392 10.2374 4.80981 9.98226C5.42569 9.72716 5.9853 9.35324 6.45668 8.88186C6.92806 8.41048 7.30198 7.85087 7.55709 7.23499C7.81219 6.6191 7.9435 5.959 7.9435 5.29237L2.86719 10.3687ZM31.2945 16.4602C29.9482 16.4602 28.657 16.9951 27.705 17.9471C26.753 18.8991 26.2182 20.1902 26.2182 21.5366L31.2945 16.4602Z" stroke="#591567" stroke-width="2.08136" stroke-linecap="round" stroke-linejoin="round"/>
</svg>
