<svg width="1728" height="2950" viewBox="0 0 1728 2950" fill="none" xmlns="http://www.w3.org/2000/svg">
<rect width="491.318" height="491.507" transform="matrix(4.37114e-08 1 1 -4.37114e-08 329.223 246.659)" stroke="#B7B7B7" stroke-width="0.5"/>
<rect width="491.318" height="491.507" transform="matrix(4.37114e-08 1 1 -4.37114e-08 820.541 246.659)" stroke="#B7B7B7" stroke-width="0.5"/>
<rect width="982.635" height="983.013" transform="matrix(4.37114e-08 1 1 -4.37114e-08 -162.285 737.977)" stroke="#B7B7B7" stroke-width="0.5"/>
<rect width="982.635" height="983.013" transform="matrix(4.37114e-08 1 1 -4.37114e-08 820.729 1229.29)" stroke="#B7B7B7" stroke-width="0.5"/>
<rect width="491.318" height="491.507" transform="matrix(4.37114e-08 1 1 -4.37114e-08 820.729 737.977)" stroke="#B7B7B7" stroke-width="0.5"/>
<rect width="491.318" height="491.507" transform="matrix(4.37114e-08 1 1 -4.37114e-08 329.223 1720.61)" stroke="#B7B7B7" stroke-width="0.5"/>
<rect width="491.318" height="491.507" transform="matrix(4.37114e-08 1 1 -4.37114e-08 329.223 2211.93)" stroke="#B7B7B7" stroke-width="0.5"/>
<rect width="491.318" height="491.507" transform="matrix(4.37114e-08 1 1 -4.37114e-08 820.541 2211.93)" stroke="#B7B7B7" stroke-width="0.5"/>
<circle cx="491.318" cy="491.318" r="491.318" transform="matrix(4.37114e-08 1 1 -4.37114e-08 -161.906 1229.29)" stroke="#B7B7B7" stroke-width="0.5"/>
<circle cx="491.318" cy="491.318" r="491.318" transform="matrix(4.37114e-08 1 1 -4.37114e-08 820.729 737.977)" stroke="#B7B7B7" stroke-width="0.5"/>
<circle cx="245.659" cy="245.659" r="245.659" transform="matrix(4.37114e-08 1 1 -4.37114e-08 1066.39 2457.59)" stroke="#B7B7B7" stroke-width="0.5"/>
<circle cx="245.659" cy="245.659" r="245.659" transform="matrix(4.37114e-08 1 1 -4.37114e-08 83.752 1)" stroke="#B7B7B7" stroke-width="0.5"/>
<line x1="341.506" y1="1228.6" x2="317.318" y2="1228.6" stroke="#B7B7B7" stroke-width="0.5"/>
<line x1="330.105" y1="1241.39" x2="330.105" y2="1217.2" stroke="#B7B7B7" stroke-width="0.5"/>
<line x1="341.506" y1="2702.55" x2="317.318" y2="2702.55" stroke="#B7B7B7" stroke-width="0.5"/>
<line x1="330.105" y1="2715.34" x2="330.105" y2="2691.15" stroke="#B7B7B7" stroke-width="0.5"/>
<line x1="832.445" y1="2702.55" x2="808.257" y2="2702.55" stroke="#B7B7B7" stroke-width="0.5"/>
<line x1="821.045" y1="2715.34" x2="821.045" y2="2691.15" stroke="#B7B7B7" stroke-width="0.5"/>
<line x1="341.506" y1="245.964" x2="317.318" y2="245.964" stroke="#B7B7B7" stroke-width="0.5"/>
<line x1="330.105" y1="258.753" x2="330.105" y2="234.565" stroke="#B7B7B7" stroke-width="0.5"/>
<line x1="1324.33" y1="1719.92" x2="1300.14" y2="1719.92" stroke="#B7B7B7" stroke-width="0.5"/>
<line x1="1312.93" y1="1732.71" x2="1312.93" y2="1708.52" stroke="#B7B7B7" stroke-width="0.5"/>
<line x1="1324.33" y1="2702.55" x2="1300.14" y2="2702.55" stroke="#B7B7B7" stroke-width="0.5"/>
<line x1="1312.93" y1="2715.34" x2="1312.93" y2="2691.15" stroke="#B7B7B7" stroke-width="0.5"/>
<line x1="1323.95" y1="245.964" x2="1299.76" y2="245.964" stroke="#B7B7B7" stroke-width="0.5"/>
<line x1="1312.55" y1="258.753" x2="1312.55" y2="234.565" stroke="#B7B7B7" stroke-width="0.5"/>
<line x1="832.633" y1="245.964" x2="808.445" y2="245.964" stroke="#B7B7B7" stroke-width="0.5"/>
<line x1="821.234" y1="258.753" x2="821.234" y2="234.565" stroke="#B7B7B7" stroke-width="0.5"/>
<rect x="305.096" y="737.727" width="23.6879" height="23.6879" transform="rotate(-90 305.096 737.727)" fill="#5D5A61" stroke="#B7B7B7" stroke-width="0.5"/>
<rect x="1312.48" y="2235.87" width="23.6879" height="23.6879" transform="rotate(-90 1312.48 2235.87)" fill="#5D5A61" stroke="#B7B7B7" stroke-width="0.5"/>
</svg>
