<svg width="1394" height="429" viewBox="0 0 1394 429" fill="none" xmlns="http://www.w3.org/2000/svg">
<g clip-path="url(#clip0_296_2271)">
<rect width="1394" height="429" rx="21" fill="black"/>
<path d="M1455.61 208.387L1364.22 117L1455.61 25.6123L1547 117L1455.61 208.387ZM1222.39 208.387L1131 117L1222.39 25.6123L1313.78 117L1222.39 208.387ZM1339 325L1247.61 233.613L1339 142.224L1430.39 233.613L1339 325ZM1339 91.7754L1247.61 0.387711L1339 -91L1430.39 0.387711L1339 91.7754Z" fill="white" fill-opacity="0.18"/>
<path d="M192.279 324.721L110.556 243L192.279 161.278L274 243L192.279 324.721ZM-16.2783 324.721L-98 243L-16.2783 161.278L65.4434 243L-16.2783 324.721ZM88 429L6.2783 347.279L88 265.556L169.721 347.279L88 429ZM88 220.443L6.2783 138.722L88 57L169.721 138.722L88 220.443Z" fill="white" fill-opacity="0.18"/>
</g>
<defs>
<clipPath id="clip0_296_2271">
<rect width="1394" height="429" fill="white"/>
</clipPath>
</defs>
</svg>
