<svg width="14" height="15" viewBox="0 0 14 15" fill="none" xmlns="http://www.w3.org/2000/svg">
<path d="M2.36514 9.1527C3.24584 9.1527 3.95978 8.45462 3.95978 7.5935C3.95978 6.73238 3.24584 6.0343 2.36514 6.0343C1.48445 6.0343 0.770508 6.73238 0.770508 7.5935C0.770508 8.45462 1.48445 9.1527 2.36514 9.1527Z" stroke="#6C757D" stroke-width="1.1694" stroke-linecap="round" stroke-linejoin="round"/>
<path d="M10.871 4.47509C11.7517 4.47509 12.4656 3.77701 12.4656 2.91589C12.4656 2.05477 11.7517 1.35669 10.871 1.35669C9.99031 1.35669 9.27637 2.05477 9.27637 2.91589C9.27637 3.77701 9.99031 4.47509 10.871 4.47509Z" stroke="#6C757D" stroke-width="1.1694" stroke-linecap="round" stroke-linejoin="round"/>
<path d="M10.871 13.8303C11.7517 13.8303 12.4656 13.1322 12.4656 12.2711C12.4656 11.41 11.7517 10.7119 10.871 10.7119C9.99031 10.7119 9.27637 11.41 9.27637 12.2711C9.27637 13.1322 9.99031 13.8303 10.871 13.8303Z" stroke="#6C757D" stroke-width="1.1694" stroke-linecap="round" stroke-linejoin="round"/>
<path d="M3.75488 8.35789L9.48029 11.5068M9.48029 3.6803L3.75488 6.82923" stroke="#6C757D" stroke-width="1.1694" stroke-linecap="round" stroke-linejoin="round"/>
</svg>
